<svg id="Colors" xmlns="http://www.w3.org/2000/svg" width="1920" height="1080" viewBox="0 0 1920 1080">
  <metadata><?xpacket begin="﻿" id="W5M0MpCehiHzreSzNTczkc9d"?>
<x:xmpmeta xmlns:x="adobe:ns:meta/" x:xmptk="Adobe XMP Core 5.6-c138 79.159824, 2016/09/14-01:09:01        ">
   <rdf:RDF xmlns:rdf="http://www.w3.org/1999/02/22-rdf-syntax-ns#">
      <rdf:Description rdf:about=""/>
   </rdf:RDF>
</x:xmpmeta>
<?xpacket end="w"?></metadata>
<defs>
    <style>
      .cls-1 {
        fill: #c8eef1;
      }

      .cls-1, .cls-10, .cls-11, .cls-13, .cls-14, .cls-2, .cls-3, .cls-4, .cls-5, .cls-6, .cls-7, .cls-8, .cls-9 {
        fill-rule: evenodd;
      }

      .cls-2 {
        fill: #98afaa;
      }

      .cls-3 {
        fill: #819994;
      }

      .cls-4 {
        fill: #919191;
      }

      .cls-5 {
        fill: #f5f3f3;
      }

      .cls-6 {
        fill: #fff;
      }

      .cls-7 {
        fill: #fee5dd;
      }

      .cls-8 {
        fill: #fedbb3;
      }

      .cls-9 {
        fill: #f59678;
      }

      .cls-10 {
        fill: #ffd545;
      }

      .cls-11 {
        fill: #e5ffd4;
      }

      .cls-12 {
        fill: #ffe63a;
      }

      .cls-13 {
        fill: #a4d683;
      }

      .cls-14 {
        fill: #7fad60;
      }
    </style>
  </defs>
  <g id="desktop_colors" data-name="desktop colors">
    <path id="Frame_copy" data-name="Frame copy" class="cls-1" d="M1167.43,967.574l-13.75-13.75a7.046,7.046,0,0,1,0-9.962l17.4-17.4,65.73-65.749,18.33-18.335a7.03,7.03,0,0,1,9.95,0l13.75,13.75,72.7,72.723,13.75,13.749a7.046,7.046,0,0,1,0,9.962L1346.96,970.9l-65.73,65.753-17.4,17.4a7.043,7.043,0,0,1-9.96,0l-13.74-13.75Z"/>
    <path id="Rounded_Rectangle_1" data-name="Rounded Rectangle 1" class="cls-2" d="M1249.44,1030.08l92.63-92.634a6.5,6.5,0,0,1,9.19,9.193l-92.63,92.631A6.5,6.5,0,0,1,1249.44,1030.08Z"/>
    <path id="Rounded_Rectangle_6" data-name="Rounded Rectangle 6" class="cls-3" d="M1348.73,950.467l2.12,2.122a2.493,2.493,0,0,1,0,3.535l-83.44,83.436a2.487,2.487,0,0,1-3.53,0l-2.13-2.12"/>
    <path id="Rounded_Rectangle_2" data-name="Rounded Rectangle 2" class="cls-4" d="M1208.08,971.034l43.13-43.134a10,10,0,0,1,14.14,0l26.09,26.085a10.009,10.009,0,0,1,0,14.142l-43.14,43.133a9.989,9.989,0,0,1-14.14,0l-26.08-26.084A9.991,9.991,0,0,1,1208.08,971.034Z"/>
    <path id="Rounded_Rectangle_5" data-name="Rounded Rectangle 5" class="cls-5" d="M1213.73,975.277l41.01-41.013a4,4,0,0,1,5.66,0l24.75,24.749a4,4,0,0,1,0,5.657l-41.01,41.01a4.008,4.008,0,0,1-5.66,0l-24.75-24.747A4,4,0,0,1,1213.73,975.277Z"/>
    <path id="Rounded_Rectangle_3" data-name="Rounded Rectangle 3" class="cls-4" d="M1283,989.131l-6.91-6.914c-0.35-.347-14.05,13.349-13.7,13.7l6.92,6.917C1269.65,1003.17,1283.35,989.478,1283,989.131Z"/>
    <path id="Rounded_Rectangle_4" data-name="Rounded Rectangle 4" class="cls-4" d="M1264.9,1014.78a6.193,6.193,0,0,1-.04-8.76l20.54-20.546a6.2,6.2,0,0,1,8.76.042C1296.59,987.946,1267.33,1017.21,1264.9,1014.78Z"/>
    <path id="Shape_3_copy_2" data-name="Shape 3 copy 2" class="cls-6" d="M1238.72,940.214s-5.07-11.308-11.96-17.689c-4.61-4.276-10.63-5.936-10.79-6.645-0.76-3.613-9.19-13.435-9.19-13.435l-1.41,7.071-5.66,5.657-7.78.707s7.52,8.691,11.32,9.9c3.96,1.261,1.94,2.829,5.65,12.728s12.42,11,12.61,12.435S1214.81,958,1213,959a6.389,6.389,0,0,1-6.51-.694c-2.35-1.881,2.08-6.08-1.49-6.306-3.36-.212-3.97,8.331,0,10,4.28,1.8,7.39,1.528,12-1C1219.08,959.857,1238.72,940.214,1238.72,940.214Z"/>
  </g>
  <g id="profile_picture_colors" data-name="profile picture colors">
    <path id="Ellipse_1_copy" data-name="Ellipse 1 copy" class="cls-7" d="M655.641,65.965a66.213,66.213,0,1,1-32.018,88A66.188,66.188,0,0,1,655.641,65.965Z"/>
    <path id="Shape_21_copy_4" data-name="Shape 21 copy 4" class="cls-8" d="M697.055,88.932s-7.336-6.581-13.4-6.8-15.339,6.9-15.339,6.9l4.253,35.86s-3.176-2.005-4.732.523c-4.135,6.717,8.71,9.129,8.71,9.129s15.263,1.663,16.455,4.417c0.7,1.619-.859,7.329-4.094,12.8-0.4.673,2.191,5.652,3.427,7.265s5.4,5.678,13.631,3.019,14.448-6.179,12.967-8.562-9.746-7.613-8.246-10.413,12.733-29.742,6.568-40.13c-4.161-7.01-9.181-8.55-14.647-10.338A18.3,18.3,0,0,1,697.055,88.932Z"/>
    <path id="Shape_21_copy_5" data-name="Shape 21 copy 5" class="cls-9" d="M657.662,159.325c-0.841-4.582-5.1-15.59-8.609-19.735s-22.635-27.087-9.837-46.2,32.831-21.037,42.853-16.425a38.86,38.86,0,0,1,14.986,11.966s-7.336-6.581-13.4-6.8-15.339,6.9-15.339,6.9l4.253,35.86s-3.176-2.005-4.732.523c-4.135,6.717,8.71,9.129,8.71,9.129s1.972,0.215,4.553.618c4.6,0.718,11.138,2.035,11.9,3.8,0.7,1.609-.786,7.291-4.033,12.7-2.31,3.848-9.638,11.69-16.943,12.291S658.5,163.906,657.662,159.325Z"/>
    <path id="Shape_4_copy" data-name="Shape 4 copy" class="cls-10" d="M688,191s2.25-30.167,7-29a21.875,21.875,0,0,0,17-3c6.083-3.833,7-5,7-5l-3-4s4.25-4.333,10-5,20-2,20-2-5.167,14.417-7,17-14.083,15.833-17,18-15.167,8.833-19,10S688,191,688,191Z"/>
  </g>
  <g id="green_land_colors" data-name="green land colors">
    <path id="Rounded_Rectangle_8_copy_2" data-name="Rounded Rectangle 8 copy 2" class="cls-11" d="M1919.49,192.919L1696.93,415.547a7.042,7.042,0,0,1-9.96,0l-62.74-62.761a7.046,7.046,0,0,1,0-9.962l233.04-233.112a7.042,7.042,0,0,1,9.96,0l52.26,52.277"/>
    <circle id="Ellipse_1_copy-2" data-name="Ellipse 1 copy" class="cls-12" cx="1852.97" cy="171.766" r="30"/>
    <path id="Shape_2_copy" data-name="Shape 2 copy" class="cls-13" d="M1752.55,318.829s6.19-21.633,31.11-43.841c32.63-29.078,97.58-46.669,97.58-46.669l-108.19,109.6Z"/>
    <path id="Shape_1_copy" data-name="Shape 1 copy" class="cls-14" d="M1672.65,400.146s-3.12-43.275,23.33-62.932S1794.97,316,1794.97,316L1694.57,416.41a2.574,2.574,0,0,1-2.29.635,17.733,17.733,0,0,1-4.08-1.342Z"/>
    <path id="Shape_3_copy" data-name="Shape 3 copy" class="cls-6" d="M1853.13,191.726s-12.37-7.6-20.68-3.712-11.84,13.789-10.61,17.678-20.5-13.966-32.52,0,7.95,41.9,7.95,41.9Z"/>
  </g>
</svg>
