<svg id="wires" xmlns="http://www.w3.org/2000/svg" width="1920" height="1080" viewBox="0 0 1920 1080">
  <metadata><?xpacket begin="﻿" id="W5M0MpCehiHzreSzNTczkc9d"?>
<x:xmpmeta xmlns:x="adobe:ns:meta/" x:xmptk="Adobe XMP Core 5.6-c138 79.159824, 2016/09/14-01:09:01        ">
   <rdf:RDF xmlns:rdf="http://www.w3.org/1999/02/22-rdf-syntax-ns#">
      <rdf:Description rdf:about=""/>
   </rdf:RDF>
</x:xmpmeta>
<?xpacket end="w"?></metadata>
<defs>
    <style>
      .cls-16, .cls-17, .cls-18 {
        fill: none;
        stroke: #5b5b5b;
        stroke-linecap: round;
        stroke-linejoin: round;
        stroke-width: 2px;
      }

      .cls-16, .cls-17 {
        fill-rule: evenodd;
      }

      .cls-17 {
        mix-blend-mode: darken;
      }
    </style>
  </defs>
  <g id="insides">
    <path id="Rounded_Rectangle_6_copy_2" data-name="Rounded Rectangle 6 copy 2" class="cls-16" d="M865.136,500.885l-55.77,55.788a7.044,7.044,0,0,0,0,9.962L918.417,675.719a7.04,7.04,0,0,0,9.959,0l55.771-55.787"/>
    <path id="Rounded_Rectangle_7" data-name="Rounded Rectangle 7" class="cls-16" d="M1045.4,629.4l140.42-140.465a7.042,7.042,0,0,1,9.96,0l11.45,11.456a7.046,7.046,0,0,1,0,9.962L1066.81,650.814a7.042,7.042,0,0,1-9.96,0l-11.45-11.456A7.028,7.028,0,0,1,1045.4,629.4Z"/>
    <path id="Rounded_Rectangle_6_copy" data-name="Rounded Rectangle 6 copy" class="cls-17" d="M1057.84,308.12l55.77-55.788a7.042,7.042,0,0,1,9.96,0l109.06,109.085a7.046,7.046,0,0,1,0,9.962l-55.78,55.787"/>
    <path id="Rounded_Rectangle_6" data-name="Rounded Rectangle 6" class="cls-16" d="M851.194,476.977l182.746-182.8a7.042,7.042,0,0,1,9.96,0l136.44,136.48a7.046,7.046,0,0,1,0,9.962l-182.748,182.8a7.04,7.04,0,0,1-9.959,0L851.194,486.939A7.044,7.044,0,0,1,851.194,476.977Z"/>
    <path class="cls-17" d="M1445.32,96.852L1540.41,1.7"/>
    <path id="Shape_1_copy" data-name="Shape 1 copy" class="cls-17" d="M1472.81,126.379L1596.75,1.7"/>
    <path id="Shape_1_copy_2" data-name="Shape 1 copy 2" class="cls-17" d="M1503.58,155.13L1657.31,1.7"/>
    <path id="Shape_1_copy_3" data-name="Shape 1 copy 3" class="cls-17" d="M1532.47,184.02L1715.06,1.7"/>
    <path id="Shape_1_copy_4" data-name="Shape 1 copy 4" class="cls-17" d="M1561.84,213.408L1750.92,24.274"/>
    <path id="Frame_copy" data-name="Frame copy" class="cls-16" d="M1445.65,1022.99l13.75,13.75a7.043,7.043,0,0,1,0,9.96l-18.33,18.34m-78.78-78.806,18.33-18.334a7.042,7.042,0,0,1,9.96,0l13.74,13.749M1282.1,1082.28l-2.93-2.93a7.056,7.056,0,0,1,0-9.97l17.39-17.4"/>
    <path id="Frame_copy_2" data-name="Frame copy 2" class="cls-16" d="M1456.4,1080.38l18.33-18.34a7.043,7.043,0,0,1,9.96,0l13.75,13.75"/>
    <path id="Frame_copy_3" data-name="Frame copy 3" class="cls-16" d="M1359.8,737.681l18.33-18.334a7.042,7.042,0,0,1,9.96,0l13.74,13.749m-30.47,147.645-17.4,17.4a7.043,7.043,0,0,1-9.96,0l-13.74-13.75m-39.84-39.848-13.74-13.75a7.046,7.046,0,0,1,0-9.962l17.39-17.4m147.6-30.487,13.75,13.75a7.046,7.046,0,0,1,0,9.962l-18.33,18.335"/>
    <path id="Frame_copy_4" data-name="Frame copy 4" class="cls-16" d="M1451.42,829.332L1469.75,811a7.042,7.042,0,0,1,9.96,0l13.75,13.75m11.35,189.483-17.4,17.4a7.043,7.043,0,0,1-9.96,0l-13.74-13.75m-81.67-81.687-13.74-13.749a7.046,7.046,0,0,1,0-9.962l17.39-17.4m189.43,11.354,13.75,13.75a7.046,7.046,0,0,1,0,9.962l-18.33,18.335"/>
    <path id="Frame_copy_5" data-name="Frame copy 5" class="cls-16" d="M1742.93,1074.3l7.98,7.98M1585.37,963.322l18.33-18.335a7.042,7.042,0,0,1,9.96,0l13.75,13.75M1515.99,1070.18l-13.74-13.75a7.043,7.043,0,0,1,0-9.96l17.39-17.4"/>
    <path id="Frame_copy_6" data-name="Frame copy 6" class="cls-16" d="M1482.79,614.65l18.33-18.335a7.042,7.042,0,0,1,9.96,0l13.75,13.75m-16.54,161.591-17.39,17.4a7.042,7.042,0,0,1-9.96,0l-13.75-13.75m-53.77-53.8-13.75-13.75a7.046,7.046,0,0,1,0-9.962l17.39-17.4m161.55-16.54,13.74,13.75a7.046,7.046,0,0,1,0,9.962l-18.33,18.335"/>
    <path id="Frame_copy_7" data-name="Frame copy 7" class="cls-16" d="M1588.86,720.746l18.33-18.335a7.042,7.042,0,0,1,9.96,0l13.74,13.75m33.26,211.4-17.39,17.4a7.042,7.042,0,0,1-9.96,0l-13.75-13.749M1519.48,827.607l-13.75-13.75a7.046,7.046,0,0,1,0-9.962l17.4-17.4m211.34,33.271,13.74,13.75a7.046,7.046,0,0,1,0,9.962l-18.33,18.335"/>
    <path id="Frame_copy_8" data-name="Frame copy 8" class="cls-16" d="M1745.22,877.15l18.32-18.335a7.042,7.042,0,0,1,9.96,0l13.75,13.75m8.36,186.495-17.39,17.4a7.043,7.043,0,0,1-9.96,0l-13.75-13.75m-78.67-78.7-13.75-13.749a7.047,7.047,0,0,1,0-9.963l17.4-17.4m186.44,8.365,13.74,13.75a7.046,7.046,0,0,1,0,9.962l-18.33,18.335"/>
    <path id="Rounded_Rectangle_3" data-name="Rounded Rectangle 3" class="cls-16" d="M1377.53,145.738l18.92-18.927c2.75-2.751,6.62-3.339,8.65-1.312l13.94,13.944M1308.99,249.524l-13.94-13.944c-2.02-2.027-1.44-5.9,1.31-8.651l18.43-18.43m137.93,137.975L1434.3,364.9c-2.75,2.752-6.63,3.339-8.65,1.312l-14.68-14.678m110.05-110.081,14.68,14.678c2.02,2.027,1.43,5.9-1.32,8.651l-18.92,18.928"/>
    <path id="Rounded_Rectangle_9" data-name="Rounded Rectangle 9" class="cls-16" d="M138.125,870.478L63.681,944.944A29.229,29.229,0,1,1,22.352,903.6L96.8,829.135"/>
    <path id="Rounded_Rectangle_9_copy_2" data-name="Rounded Rectangle 9 copy 2" class="cls-16" d="M240.7,973.087L166.26,1047.55a29.228,29.228,0,1,1-41.33-41.34l74.444-74.466"/>
    <path id="Rounded_Rectangle_9_copy_3" data-name="Rounded Rectangle 9 copy 3" class="cls-16" d="M167.948,1082.28a29.175,29.175,0,0,1,8.271-24.76l74.444-74.471m41.33,41.341-57.873,57.89"/>
    <path id="Rounded_Rectangle_9_copy" data-name="Rounded Rectangle 9 copy" class="cls-16" d="M189.415,921.782L77.624,1033.61a29.23,29.23,0,0,1-41.33-41.346L148.084,880.44"/>
    <path id="Frame_copy_9" data-name="Frame copy 9" class="cls-16" d="M56.122,413.436l13.746,13.75a7.046,7.046,0,0,1,0,9.962L51.538,455.483"/>
    <path id="Frame_copy_10" data-name="Frame copy 10" class="cls-16" d="M152.471,79.088l13.746,13.75a7.047,7.047,0,0,1,0,9.963l-18.33,18.334M37.736,10.95L46.987,1.7M75.1,1.7L79.77,6.365"/>
    <path id="Rounded_Rectangle_8" data-name="Rounded Rectangle 8" class="cls-16" d="M1510.48,457.052l85.15-85.175a7.042,7.042,0,0,1,9.96,0l62.74,62.761a7.046,7.046,0,0,1,0,9.962l-85.15,85.176a7.031,7.031,0,0,1-9.95,0l-62.75-62.761A7.047,7.047,0,0,1,1510.48,457.052Z"/>
    <path id="Rounded_Rectangle_8_copy_2" data-name="Rounded Rectangle 8 copy 2" class="cls-16" d="M1919.28,351.929l-52.76-52.775a7.046,7.046,0,0,1,0-9.962l52.76-52.775"/>
    <path id="Rounded_Rectangle_8_copy_2-2" data-name="Rounded Rectangle 8 copy 2" class="cls-16" d="M1605.09,550.7l233.05-233.112a7.03,7.03,0,0,1,9.95,0l62.75,62.761a7.046,7.046,0,0,1,0,9.962L1677.8,623.419a7.042,7.042,0,0,1-9.96,0l-62.75-62.761A7.046,7.046,0,0,1,1605.09,550.7Z"/>
    <path id="Rounded_Rectangle_8_copy_3" data-name="Rounded Rectangle 8 copy 3" class="cls-16" d="M1919.28,569.149L1771.41,717.062a7.042,7.042,0,0,1-9.96,0L1698.71,654.3a7.046,7.046,0,0,1,0-9.962L1919.28,423.7"/>
    <path id="Rounded_Rectangle_2_copy_8" data-name="Rounded Rectangle 2 copy 8" class="cls-16" d="M1147.21,793.933l204.66-204.72a7.042,7.042,0,0,1,9.96,0l34.85,34.867a7.046,7.046,0,0,1,0,9.962l-204.66,204.72a7.042,7.042,0,0,1-9.96,0L1147.21,803.9A7.046,7.046,0,0,1,1147.21,793.933Z"/>
    <path id="Rounded_Rectangle_5" data-name="Rounded Rectangle 5" class="cls-16" d="M655.608,1082.28l-125.1-125.132a7.046,7.046,0,0,1,0-9.962L640.036,837.629a7.04,7.04,0,0,1,9.959,0L829.258,1016.95a7.043,7.043,0,0,1,0,9.96L773.9,1082.28"/>
    <path id="Rounded_Rectangle_5_copy" data-name="Rounded Rectangle 5 copy" class="cls-16" d="M662,815.66L771.521,706.1a7.04,7.04,0,0,1,9.959,0L960.743,885.421a7.046,7.046,0,0,1,0,9.962L851.22,1004.94a7.042,7.042,0,0,1-9.959,0L662,825.622A7.044,7.044,0,0,1,662,815.66Z"/>
    <path class="cls-16" d="M549.432,974.086L667.452,856.03"/>
    <path id="Shape_3_copy" data-name="Shape 3 copy" class="cls-16" d="M680.411,843.067L798.894,724.549"/>
    <path id="Rounded_Rectangle_4_copy_2" data-name="Rounded Rectangle 4 copy 2" class="cls-16" d="M1212.62,1.7l20.5,20.513a7.046,7.046,0,0,1,0,9.962l-76.68,76.708a7.042,7.042,0,0,1-9.96,0L1039.33,1.7"/>
    <path id="Rounded_Rectangle_4_copy" data-name="Rounded Rectangle 4 copy" class="cls-16" d="M1175.86,128.305L1252.54,51.6a7.042,7.042,0,0,1,9.96,0l15.94,15.939a7.046,7.046,0,0,1,0,9.962l-76.69,76.708a7.042,7.042,0,0,1-9.96,0l-15.93-15.939A7.046,7.046,0,0,1,1175.86,128.305Z"/>
    <path class="cls-16" d="M493.166,948.68l132.476,133.6"/>
    <path id="Shape_2_copy" data-name="Shape 2 copy" class="cls-16" d="M1254.39,1.637c37.93,37.949,67.87,67.891,67.87,67.891"/>
    <circle class="cls-18" cx="148.078" cy="651.813" r="87.703"/>
    <path id="Ellipse_2_copy" data-name="Ellipse 2 copy" class="cls-16" d="M524.83,552.9a87.7,87.7,0,1,1-42.407,116.548A87.663,87.663,0,0,1,524.83,552.9Z"/>
    <path id="Rounded_Rectangle_2_copy_3" data-name="Rounded Rectangle 2 copy 3" class="cls-16" d="M857.653,1.7l-109.5,109.535m-79.28,79.3L528.751,330.7a7.04,7.04,0,0,1-9.959,0L347.5,159.35a7.046,7.046,0,0,1,0-9.962L495.144,1.7"/>
    <path class="cls-16" d="M655.641,65.965a66.213,66.213,0,1,1-32.018,88A66.188,66.188,0,0,1,655.641,65.965Z"/>
    <path id="Shape_1_copy_6" data-name="Shape 1 copy 6" class="cls-17" d="M225.15,848.18L410.623,662.651"/>
    <path id="Shape_1_copy_6-2" data-name="Shape 1 copy 6" class="cls-17" d="M253.533,876.572L439.006,691.043"/>
    <path id="Shape_1_copy_6-3" data-name="Shape 1 copy 6" class="cls-17" d="M283.41,906.459l185.473-185.53"/>
    <path id="Shape_1_copy_6-4" data-name="Shape 1 copy 6" class="cls-17" d="M312.291,935.348L497.765,749.819"/>
    <path id="Shape_1_copy_6-5" data-name="Shape 1 copy 6" class="cls-17" d="M341.67,964.737l185.474-185.53"/>
    <g>
      <path id="Shape_1_copy_7" data-name="Shape 1 copy 7" class="cls-17" d="M10.15,313.18L195.623,127.651"/>
      <path id="Shape_1_copy_8" data-name="Shape 1 copy 8" class="cls-17" d="M38.533,341.572L224.006,156.043"/>
      <path id="Shape_1_copy_9" data-name="Shape 1 copy 9" class="cls-17" d="M68.41,371.459l185.473-185.53"/>
      <path id="Shape_1_copy_10" data-name="Shape 1 copy 10" class="cls-17" d="M97.291,400.348L282.765,214.819"/>
    </g>
    <path id="Shape_1_copy_6-6" data-name="Shape 1 copy 6" class="cls-17" d="M913.664,1082.28l110.436-110.8"/>
    <path id="Shape_1_copy_6-7" data-name="Shape 1 copy 6" class="cls-17" d="M970,1082.28l82.479-82.413"/>
    <path id="Shape_1_copy_6-8" data-name="Shape 1 copy 6" class="cls-17" d="M1029.86,1082.28l52.5-52.53"/>
    <path id="Shape_1_copy_6-9" data-name="Shape 1 copy 6" class="cls-17" d="M1087.6,1082.28l23.64-23.64"/>
    <path id="Shape_1_copy_6-10" data-name="Shape 1 copy 6" class="cls-17" d="M183.819,503.992l185.474-185.53"/>
    <path id="Shape_1_copy_6-11" data-name="Shape 1 copy 6" class="cls-17" d="M212.2,532.384l185.473-185.53"/>
    <path id="Shape_1_copy_6-12" data-name="Shape 1 copy 6" class="cls-17" d="M242.08,562.27L427.553,376.74"/>
    <path id="Shape_1_copy_6-13" data-name="Shape 1 copy 6" class="cls-17" d="M270.961,591.16L456.435,405.63"/>
    <path id="Shape_1_copy_6-14" data-name="Shape 1 copy 6" class="cls-17" d="M300.34,620.548l185.474-185.53"/>
    <path id="Shape_1_copy_6-15" data-name="Shape 1 copy 6" class="cls-17" d="M1836.52,785.42l82.76-82.823"/>
    <path id="Shape_1_copy_6-16" data-name="Shape 1 copy 6" class="cls-17" d="M1864.91,813.811l54.37-54.155"/>
    <path id="Shape_1_copy_6-17" data-name="Shape 1 copy 6" class="cls-17" d="M1894.78,843.7l24.5-24.166"/>
    <path id="Rounded_Rectangle_2" data-name="Rounded Rectangle 2" class="cls-16" d="M662.168,295.864l20.45-20.456a7.04,7.04,0,0,1,9.959,0l14.742,14.746M592.79,404.718l-14.742-14.746a7.046,7.046,0,0,1,0-9.962l19.885-19.891m92.619,92.648-19.885,19.89a7.04,7.04,0,0,1-9.959,0l-15.633-15.638M759.6,342.455l15.633,15.638a7.044,7.044,0,0,1,0,9.962l-20.449,20.456"/>
    <path id="Rounded_Rectangle_2_copy_19" data-name="Rounded Rectangle 2 copy 19" class="cls-16" d="M789.146,168.848l20.45-20.456a7.04,7.04,0,0,1,9.959,0L834.3,163.138M719.768,277.7l-14.742-14.746a7.046,7.046,0,0,1,0-9.962L724.91,233.1m92.62,92.647-19.885,19.891a7.04,7.04,0,0,1-9.959,0L772.053,330M886.582,215.439l15.633,15.638a7.046,7.046,0,0,1,0,9.962L881.766,261.5"/>
    <path id="Rounded_Rectangle_2_copy_20" data-name="Rounded Rectangle 2 copy 20" class="cls-16" d="M916.124,41.832l20.45-20.456a7.04,7.04,0,0,1,9.959,0l14.742,14.746M846.746,150.686L832,135.94a7.046,7.046,0,0,1,0-9.962l19.884-19.891m92.62,92.647-19.885,19.891a7.04,7.04,0,0,1-9.959,0l-15.633-15.639M1013.56,88.423l15.63,15.638a7.046,7.046,0,0,1,0,9.962l-20.45,20.456"/>
  </g>
  <g id="desktop_strokes" data-name="desktop strokes">
    <path id="Frame_copy-2" data-name="Frame copy" class="cls-16" d="M1167.43,967.574l-13.75-13.75a7.046,7.046,0,0,1,0-9.962l17.4-17.4,65.73-65.749,18.33-18.335a7.03,7.03,0,0,1,9.95,0l13.75,13.75,72.7,72.723,13.75,13.749a7.046,7.046,0,0,1,0,9.962L1346.96,970.9l-65.73,65.753-17.4,17.4a7.043,7.043,0,0,1-9.96,0l-13.74-13.75Z"/>
    <path id="Rounded_Rectangle_1" data-name="Rounded Rectangle 1" class="cls-16" d="M1249.44,1030.08l92.63-92.634a6.5,6.5,0,0,1,9.19,9.193l-92.63,92.631A6.5,6.5,0,0,1,1249.44,1030.08Z"/>
    <path id="Rounded_Rectangle_6-2" data-name="Rounded Rectangle 6" class="cls-16" d="M1349.73,950.467l2.12,2.122a2.493,2.493,0,0,1,0,3.535l-83.44,83.436a2.487,2.487,0,0,1-3.53,0l-2.13-2.12"/>
    <path id="Rounded_Rectangle_2-2" data-name="Rounded Rectangle 2" class="cls-16" d="M1208.08,971.034l43.13-43.134a10,10,0,0,1,14.14,0l26.09,26.085a10.009,10.009,0,0,1,0,14.142l-43.14,43.133a9.989,9.989,0,0,1-14.14,0l-26.08-26.084A9.991,9.991,0,0,1,1208.08,971.034Z"/>
    <path id="Rounded_Rectangle_5-2" data-name="Rounded Rectangle 5" class="cls-16" d="M1213.73,975.277l41.01-41.013a4,4,0,0,1,5.66,0l24.75,24.749a4,4,0,0,1,0,5.657l-41.01,41.01a4.008,4.008,0,0,1-5.66,0l-24.75-24.747A4,4,0,0,1,1213.73,975.277Z"/>
    <path id="Rounded_Rectangle_3-2" data-name="Rounded Rectangle 3" class="cls-16" d="M1268.31,1001.83l-5.92-5.917m13.7-13.7,5.91,5.914"/>
    <path id="Rounded_Rectangle_4" data-name="Rounded Rectangle 4" class="cls-16" d="M1264.9,1014.78a6.193,6.193,0,0,1-.04-8.76l20.54-20.546a6.2,6.2,0,0,1,8.76.042"/>
    <path class="cls-16" d="M1237.77,941.75l-11.31-11.314"/>
    <path class="cls-16" d="M1238.72,940.214s-5.07-11.308-11.96-17.689c-4.61-4.276-10.63-5.936-10.79-6.645-0.76-3.613-9.19-13.435-9.19-13.435l-1.41,7.071-5.66,5.657-7.78.707s7.52,8.691,11.32,9.9c3.96,1.261,1.94,2.829,5.65,12.728s12.42,11,12.61,12.435S1214.81,958,1213,959a6.389,6.389,0,0,1-6.51-.694c-2.35-1.881,2.08-6.08-1.49-6.306-3.36-.212-3.97,8.331,0,10,4.28,1.8,7.39,1.528,12-1"/>
    <path class="cls-16" d="M1233.95,943.578s-7.49-2.95-11.03-5.778-4.24-4.243-4.24-4.243"/>
  </g>
  <g id="profile_picture_strokes" data-name="profile picture strokes">
    <path id="Shape_21_copy_2" data-name="Shape 21 copy 2" class="cls-16" d="M697.055,88.932s-7.336-6.581-13.4-6.8-15.339,6.9-15.339,6.9l4.253,35.86s-3.176-2.005-4.732.523c-4.135,6.717,8.71,9.129,8.71,9.129s15.263,1.663,16.455,4.417c0.7,1.619-.859,7.329-4.094,12.8-0.4.673,2.191,5.652,3.427,7.265s5.4,5.678,13.631,3.019,14.448-6.179,12.967-8.562-9.746-7.613-8.246-10.413,12.733-29.742,6.568-40.13c-4.161-7.01-9.181-8.55-14.647-10.338A18.3,18.3,0,0,1,697.055,88.932Z"/>
    <path id="Shape_21_copy_3" data-name="Shape 21 copy 3" class="cls-16" d="M657.662,159.325c-0.841-4.582-5.1-15.59-8.609-19.735s-22.635-27.087-9.837-46.2,32.831-21.037,42.853-16.425a38.86,38.86,0,0,1,14.986,11.966s-7.336-6.581-13.4-6.8-15.339,6.9-15.339,6.9l4.253,35.86s-3.176-2.005-4.732.523c-4.135,6.717,8.71,9.129,8.71,9.129s15.263,1.663,16.455,4.417c0.7,1.609-.786,7.291-4.033,12.7-2.31,3.848-9.638,11.69-16.943,12.291S658.5,163.906,657.662,159.325Z"/>
    <path class="cls-16" d="M688,191s2.25-30.167,7-29m21-12s4.25-4.333,10-5,20-2,20-2"/>
  </g>
  <g id="green_land_strokes" data-name="green land strokes">
    <path id="Rounded_Rectangle_8_copy" data-name="Rounded Rectangle 8 copy" class="cls-16" d="M1919.49,192.919L1696.93,415.547a7.042,7.042,0,0,1-9.96,0l-62.74-62.761a7.046,7.046,0,0,1,0-9.962l233.04-233.112a7.042,7.042,0,0,1,9.96,0l52.26,52.277"/>
    <path class="cls-16" d="M1829.18,190.035a29.978,29.978,0,1,1,15.18,10.463"/>
    <path class="cls-16" d="M1672.65,400.146s-3.12-43.275,23.33-62.932S1793.56,316,1793.56,316"/>
    <path class="cls-16" d="M1752.55,318.829s6.19-21.633,31.11-43.841c32.63-29.078,97.58-46.669,97.58-46.669"/>
    <path class="cls-16" d="M1853.13,191.726s-12.37-7.6-20.68-3.712-11.84,13.789-10.61,17.678-20.5-13.966-32.52,0,7.95,41.9,7.95,41.9Z"/>
    <path class="cls-16" d="M1792.98,251.532l-18.1,18.1"/>
    <path class="cls-16" d="M1771.86,272.646l-4.74,4.74"/>
    <path class="cls-16" d="M1791.67,245.672l-12.07,12.065"/>
    <path id="Shape_6_copy" data-name="Shape 6 copy" class="cls-16" d="M1776.31,261.029l-8.19,8.187"/>
  </g>
</svg>
